<?xml version="1.0" standalone="no"?>
<!DOCTYPE svg PUBLIC "-//W3C//DTD SVG 20010904//EN"
 "http://www.w3.org/TR/2001/REC-SVG-20010904/DTD/svg10.dtd">
<svg version="1.0" xmlns="http://www.w3.org/2000/svg"
 width="480.000000pt" height="480.000000pt" viewBox="0 0 480.000000 480.000000"
 preserveAspectRatio="xMidYMid meet">
<metadata>
Created by potrace 1.11, written by Peter Selinger 2001-2013
</metadata>
<g transform="translate(0.000000,480.000000) scale(0.100000,-0.100000)"
fill="#000000" stroke="none">
<path d="M2272 4493 c-34 -17 -92 -81 -134 -148 -35 -56 -118 -213 -118 -222
0 -5 22 27 49 69 113 176 204 236 266 173 24 -24 25 -28 25 -182 0 -154 1
-159 26 -197 15 -21 27 -52 28 -69 1 -33 1 -33 -96 -76 -42 -18 -88 -64 -76
-76 2 -3 20 0 39 5 18 6 55 10 81 10 66 0 94 16 113 63 19 48 13 103 -21 196
-21 56 -24 80 -24 210 0 164 -9 211 -47 241 -31 24 -66 25 -111 3z"/>
<path d="M3013 4255 c-54 -48 -140 -169 -203 -286 l-40 -74 37 45 c83 102 199
208 240 220 54 17 76 4 112 -68 30 -60 90 -240 111 -335 23 -100 23 -53 0 90
-36 232 -81 384 -127 435 -29 32 -75 23 -130 -27z"/>
<path d="M2499 3804 c-37 -40 -139 -83 -219 -93 -106 -14 -171 -50 -260 -144
-103 -109 -136 -122 -201 -75 -45 33 -80 -5 -65 -69 20 -81 28 -103 35 -99 10
7 55 -41 75 -78 10 -19 12 -35 6 -46 -18 -34 48 -90 105 -90 35 0 82 25 96 51
23 44 -11 145 -58 170 -32 17 -29 43 13 100 40 55 60 69 99 69 38 0 70 -74 61
-144 -21 -183 -142 -320 -266 -303 -43 5 -50 -2 -24 -27 24 -24 134 -22 166 4
30 23 96 148 127 238 39 115 88 199 163 277 73 77 107 100 65 43 -28 -38 -62
-122 -78 -193 -6 -27 -26 -90 -45 -140 -62 -165 -74 -208 -74 -257 0 -46 2
-49 30 -55 18 -3 39 -18 51 -35 26 -35 62 -51 101 -43 l29 7 -39 28 c-76 55
-106 124 -100 228 6 110 83 248 161 288 61 32 150 -14 163 -84 3 -20 19 -50
35 -67 34 -37 51 -79 43 -110 l-6 -24 -36 24 c-89 61 -220 4 -260 -112 -9 -27
-7 -34 11 -51 36 -34 149 -82 191 -82 31 0 45 7 75 38 20 20 41 46 47 57 11
19 13 19 42 2 28 -16 35 -16 98 -1 107 24 172 7 237 -65 53 -59 62 -103 49
-236 -25 -250 -54 -286 -412 -510 -177 -111 -234 -155 -255 -195 -39 -74 40
-110 108 -50 19 17 37 30 40 30 3 0 8 -14 12 -30 4 -20 14 -32 30 -36 33 -8
60 -1 61 16 1 8 2 23 3 32 1 11 12 20 29 24 82 18 117 51 88 83 -21 23 -20 43
3 72 10 13 25 38 34 55 26 51 62 68 152 74 l80 5 8 55 c4 30 25 92 47 138 31
63 45 110 60 198 28 162 26 194 -12 272 -41 79 -132 180 -192 212 -40 22 -49
23 -88 13 -33 -9 -49 -9 -74 2 -56 23 -85 93 -46 113 9 6 36 13 60 17 23 4 42
11 42 16 0 18 -42 93 -85 154 -36 51 -92 108 -179 182 -16 14 -18 25 -13 85
l6 69 -34 15 c-52 21 -88 18 -116 -12z m-474 -559 c31 -30 31 -48 3 -76 -19
-18 -19 -21 -5 -16 10 4 16 3 12 -3 -8 -13 -66 -1 -88 19 -14 11 -17 24 -13
45 12 60 50 73 91 31z m609 -141 c14 -15 26 -33 26 -40 0 -22 -60 -74 -86 -74
-53 0 -90 71 -64 121 17 31 90 26 124 -7z m-147 -28 c-3 -7 1 -25 8 -40 16
-30 6 -34 -19 -7 -14 15 -15 24 -6 40 12 23 25 29 17 7z"/>
<path d="M1980 3200 c0 -5 5 -10 10 -10 6 0 10 5 10 10 0 6 -4 10 -10 10 -5 0
-10 -4 -10 -10z"/>
<path d="M2560 3075 c0 -8 5 -15 10 -15 6 0 10 7 10 15 0 8 -4 15 -10 15 -5 0
-10 -7 -10 -15z"/>
<path d="M2669 3761 c-16 -54 -5 -95 23 -88 27 8 66 -20 103 -73 15 -22 30
-39 32 -36 10 10 -52 168 -79 200 -39 48 -64 47 -79 -3z"/>
<path d="M1857 3660 c-25 -70 -23 -100 7 -100 24 0 78 32 132 79 l31 27 -66 0
c-57 -1 -66 2 -76 21 -10 20 -12 18 -28 -27z"/>
<path d="M3305 3461 c-7 -22 -58 -46 -80 -37 -29 11 -18 -53 14 -83 l30 -28
20 51 c22 55 37 116 28 116 -3 0 -8 -9 -12 -19z"/>
<path d="M2900 3424 c49 -127 185 -295 239 -294 40 1 101 83 101 137 0 42 -29
62 -109 73 -68 9 -152 45 -206 86 l-36 27 11 -29z"/>
<path d="M1812 2683 c-23 -9 -92 -86 -92 -104 0 -9 6 -22 13 -28 8 -6 14 -25
15 -42 0 -17 7 -40 15 -53 22 -32 94 -79 108 -70 7 4 27 8 44 8 24 1 33 8 45
33 10 21 21 31 35 30 15 -2 24 10 38 50 11 29 17 59 14 67 -7 16 -160 101
-197 109 -14 3 -31 3 -38 0z m-42 -128 c21 -25 1 -31 -22 -7 -18 18 -19 22 -6
22 8 0 21 -7 28 -15z m148 -51 c24 -16 30 -44 9 -44 -20 0 -57 30 -57 46 0 18
20 18 48 -2z m-87 -69 c6 -20 6 -26 -1 -19 -5 5 -12 25 -15 44 -5 36 -1 29 16
-25z"/>
<path d="M2487 2480 c-20 -10 -70 -48 -109 -85 -85 -79 -115 -96 -183 -104
-42 -5 -50 -9 -53 -29 -2 -13 -21 -36 -44 -52 -34 -25 -51 -30 -97 -30 -73 0
-120 25 -146 76 l-19 39 -8 -35 c-11 -52 -1 -86 37 -118 51 -45 120 -58 203
-37 38 9 80 24 94 33 39 26 90 90 78 97 -20 12 -10 45 18 57 109 45 159 73
208 120 54 51 83 88 67 88 -4 -1 -25 -9 -46 -20z"/>
<path d="M1905 2312 c-3 -3 -5 -17 -5 -31 0 -30 29 -46 98 -54 71 -9 104 47
35 58 -21 4 -57 12 -80 19 -24 7 -45 11 -48 8z"/>
<path d="M3033 2122 c-7 -18 -21 -46 -33 -61 -13 -20 -21 -47 -22 -83 l-1 -53
-6 65 -6 65 -26 -38 c-34 -49 -86 -87 -118 -87 -38 0 -56 -16 -55 -47 1 -20 0
-22 -3 -5 -5 25 -13 28 -31 10 -9 -9 -42 -12 -102 -11 -77 2 -92 0 -116 -19
-26 -21 -29 -21 -71 -6 -48 17 -53 6 -12 -25 55 -41 158 -42 292 -2 52 15 64
8 54 -32 -4 -14 -5 -13 -6 5 -1 25 -3 26 -51 12 -19 -6 -89 -17 -155 -25 -89
-11 -124 -20 -138 -34 -18 -17 -18 -19 -1 -36 16 -15 30 -17 99 -12 70 5 196
32 248 52 14 6 17 1 17 -28 0 -42 8 -67 22 -67 12 0 5 79 -16 177 -7 34 -9 60
-4 57 4 -3 8 -12 8 -20 0 -8 5 -14 10 -14 14 0 79 42 111 72 l26 24 2 -65 c1
-36 6 -70 12 -76 16 -16 30 16 24 58 -3 24 -2 36 4 32 6 -3 24 18 41 47 30 54
37 103 21 173 l-7 30 -11 -33z m-86 -144 c-3 -8 -6 -5 -6 6 -1 11 2 17 5 13 3
-3 4 -12 1 -19z"/>
<path d="M1675 1915 c-249 -44 -464 -142 -612 -279 -84 -78 -113 -126 -113
-186 0 -57 37 -94 104 -103 48 -7 76 0 46 11 -8 3 -27 18 -43 33 -27 28 -27
29 -12 66 31 74 165 188 325 276 207 113 440 169 617 147 206 -26 282 -113
202 -234 -76 -114 -365 -289 -647 -390 l-74 -26 33 42 c144 186 350 407 407
437 12 7 32 9 42 6 23 -7 25 -2 9 28 -18 32 -51 56 -80 57 -57 0 -199 -129
-360 -330 -72 -89 -179 -235 -198 -268 -10 -17 -120 -35 -134 -22 -12 11 39
67 95 105 60 40 48 54 -17 20 -68 -37 -114 -74 -131 -107 -22 -43 0 -72 65
-88 28 -7 51 -13 51 -15 0 -2 -20 -45 -45 -96 -58 -120 -90 -218 -81 -252 7
-29 49 -63 65 -53 6 4 7 16 2 29 -5 14 -3 36 5 60 21 60 91 189 142 262 47 67
47 68 119 86 371 93 718 290 804 458 31 60 36 145 12 191 -24 46 -88 93 -165
120 -81 29 -308 37 -433 15z"/>
<path d="M2910 1904 c-8 -8 -33 -27 -57 -41 -42 -24 -50 -42 -37 -76 5 -14 10
-14 42 0 67 28 81 44 82 91 0 44 -9 52 -30 26z"/>
<path d="M3294 1831 c-51 -31 -227 -261 -329 -428 -21 -35 -44 -63 -51 -63 -7
0 -19 -9 -26 -19 -20 -28 -193 -155 -257 -189 -31 -17 -71 -33 -88 -37 -28 -5
-33 -4 -33 12 0 33 59 121 127 190 63 63 167 132 180 120 3 -3 -6 -27 -21 -53
-30 -54 -30 -54 -13 -54 18 0 83 70 92 97 4 17 -1 29 -19 48 -44 44 -107 32
-249 -49 -91 -51 -136 -53 -178 -8 -36 38 -48 40 -79 8 -16 -18 -21 -33 -17
-52 6 -33 -14 -65 -97 -159 -54 -62 -137 -125 -163 -125 -24 0 -13 55 25 120
49 85 163 199 231 233 32 16 72 27 95 27 39 1 40 1 21 16 -15 12 -36 15 -88
11 -133 -9 -296 -118 -356 -239 -61 -121 -32 -208 69 -208 104 0 298 139 345
248 18 39 22 42 58 42 l39 0 -32 -37 c-39 -44 -80 -128 -80 -164 0 -38 35 -77
75 -85 70 -13 206 59 342 181 35 31 63 54 63 52 0 -2 -13 -34 -30 -70 -16 -37
-30 -80 -30 -97 0 -49 65 -102 85 -70 3 5 1 10 -4 10 -17 0 -13 27 10 72 l21
42 31 -39 c101 -131 226 -210 333 -210 l62 0 -41 -80 c-86 -172 -99 -234 -60
-277 28 -31 50 -22 77 32 50 99 171 258 251 328 28 24 42 43 35 47 -16 10 -54
-18 -142 -105 -43 -42 -78 -76 -78 -75 0 5 108 192 150 260 107 175 258 365
289 365 14 0 18 5 14 20 -7 25 -50 60 -74 60 -11 0 -82 -62 -161 -139 -138
-135 -204 -193 -240 -212 -16 -9 -17 -7 -7 18 28 75 160 243 190 243 10 0 19
5 19 11 0 14 -65 79 -79 79 -32 0 -159 -165 -220 -288 -38 -76 -38 -116 0
-145 26 -18 28 -18 64 -2 20 10 72 52 116 93 l79 74 -69 -113 c-95 -156 -102
-163 -158 -155 -94 13 -213 104 -274 211 -16 28 -29 52 -29 55 0 3 12 7 28 8
79 6 209 77 270 146 40 46 43 92 8 125 -22 21 -28 22 -61 11 -20 -7 -65 -34
-100 -60 -34 -26 -68 -51 -76 -56 -7 -4 13 30 45 77 144 206 260 335 291 323
30 -12 15 24 -19 45 -41 26 -62 26 -102 2z m-93 -430 c-48 -67 -179 -166 -197
-148 -11 11 183 176 209 177 5 0 -1 -13 -12 -29z"/>
<path d="M1456 414 c-21 -20 -20 -26 5 -58 l20 -26 -20 0 c-24 0 -29 -28 -6
-36 23 -9 62 4 69 23 4 10 -1 28 -14 45 -11 15 -16 28 -10 28 5 0 10 9 10 20
0 24 -32 27 -54 4z m24 -14 c-12 -7 -11 -12 5 -32 l19 -23 -23 21 c-23 21 -22
44 2 44 7 0 6 -4 -3 -10z m21 -83 c-10 -9 -11 -8 -5 6 3 10 9 15 12 12 3 -3 0
-11 -7 -18z"/>
<path d="M1600 384 c-40 -91 -40 -91 29 -90 41 1 61 5 61 13 0 23 -49 123 -60
123 -6 0 -20 -21 -30 -46z m50 -7 c0 -4 -6 -2 -14 5 -8 7 -12 17 -9 22 5 8 23
-12 23 -27z"/>
<path d="M1744 417 c-3 -8 -4 -39 -2 -68 l3 -54 38 -3 c32 -3 37 0 37 17 0 12
-7 21 -14 21 -11 0 -16 14 -18 47 -2 36 -7 49 -21 51 -9 2 -20 -3 -23 -11z
m28 -69 c2 -21 0 -38 -4 -38 -4 0 -8 21 -7 48 1 52 6 48 11 -10z"/>
<path d="M1892 410 c-28 -26 -29 -73 -2 -100 42 -42 113 -11 113 50 0 61 -67
91 -111 50z m37 -3 c-2 -1 -13 -9 -24 -17 -19 -14 -19 -14 -6 3 7 9 18 17 24
17 6 0 8 -1 6 -3z m43 -14 c19 -17 24 -48 9 -57 -4 -3 -6 5 -4 18 4 17 -2 28
-18 40 -13 9 -19 16 -15 16 5 0 18 -7 28 -17z m-17 -34 c0 -17 -6 -24 -20 -24
-23 0 -33 34 -13 46 20 13 33 5 33 -22z m-31 -48 c-2 -3 -12 3 -22 13 -16 17
-16 18 5 5 12 -7 20 -15 17 -18z"/>
<path d="M2060 360 c0 -63 2 -70 20 -70 15 0 20 7 20 26 l0 27 21 -27 c36 -46
49 -35 49 45 0 62 -2 70 -17 67 -10 -2 -19 -13 -21 -26 l-3 -23 -20 26 c-36
45 -49 33 -49 -45z m90 -46 c0 -4 -16 14 -35 39 -19 25 -35 49 -35 53 0 4 16
-14 35 -39 19 -25 35 -49 35 -53z"/>
<path d="M2320 415 c-7 -8 -10 -22 -6 -30 3 -9 0 -25 -7 -35 -29 -47 52 -80
102 -41 26 20 21 41 -10 41 -20 0 -26 15 -9 25 14 9 12 21 -6 39 -20 20 -48
20 -64 1z m60 -28 c0 -7 -4 -6 -10 3 -8 12 -10 12 -10 1 0 -8 -3 -12 -6 -8 -9
9 6 28 17 22 5 -4 9 -12 9 -18z m-17 -31 c7 -18 -8 -42 -17 -27 -4 6 -2 11 5
11 7 0 5 8 -6 20 -16 17 -16 20 -3 15 9 -4 19 -12 21 -19z m-30 -26 c3 -11 1
-18 -4 -14 -5 3 -9 12 -9 20 0 20 7 17 13 -6z"/>
<path d="M2568 419 c-23 -13 -23 -30 3 -63 l20 -26 -20 0 c-24 0 -29 -28 -6
-36 23 -9 62 4 69 23 4 10 -1 28 -14 45 -11 15 -16 28 -10 28 5 0 10 9 10 20
0 22 -24 26 -52 9z m23 -18 c-8 -5 -10 -14 -6 -22 6 -11 5 -11 -5 -2 -14 12
-6 33 13 33 8 0 7 -3 -2 -9z m24 -80 c-3 -6 -11 -11 -16 -11 -5 0 -4 6 3 14
14 16 24 13 13 -3z"/>
<path d="M2680 410 c0 -11 5 -20 10 -20 6 0 10 -23 10 -51 0 -47 2 -50 23 -47
19 3 22 9 23 48 1 24 7 46 13 48 6 2 11 12 11 23 0 16 -7 19 -45 19 -38 0 -45
-3 -45 -20z m47 -77 c-2 -16 -4 -3 -4 27 0 30 2 43 4 28 2 -16 2 -40 0 -55z"/>
<path d="M2835 405 c-14 -13 -25 -33 -25 -45 0 -28 43 -70 73 -70 61 0 89 81
41 119 -35 27 -59 26 -89 -4z m20 -15 c-12 -13 -15 -27 -11 -47 5 -21 4 -24
-4 -13 -5 8 -10 21 -10 29 0 14 28 51 38 51 3 0 -3 -9 -13 -20z m73 -15 c-3
-3 -9 2 -12 12 -6 14 -5 15 5 6 7 -7 10 -15 7 -18z m-28 0 c25 -30 -10 -61
-38 -33 -7 7 -8 17 -1 30 12 22 23 23 39 3z m20 -50 c-7 -8 -16 -15 -21 -15
-5 0 -1 8 9 18 20 22 31 19 12 -3z"/>
<path d="M3009 424 c-1 -11 -1 -116 0 -126 2 -17 41 -7 41 10 1 16 1 16 11 0
5 -10 19 -18 29 -18 23 0 24 4 10 30 -7 13 -7 21 0 25 15 9 12 51 -4 64 -18
15 -86 26 -87 15z m23 -41 c-3 -16 -7 -22 -10 -15 -4 13 4 42 11 42 2 0 2 -12
-1 -27z m49 10 c13 -16 12 -17 -3 -4 -10 7 -18 15 -18 17 0 8 8 3 21 -13z
m-16 -12 c3 -5 1 -12 -5 -16 -5 -3 -10 1 -10 9 0 18 6 21 15 7z m9 -47 c3 -8
2 -12 -4 -9 -6 3 -10 10 -10 16 0 14 7 11 14 -7z"/>
<path d="M3170 360 l0 -70 35 0 c28 0 35 4 35 19 0 11 -8 22 -17 24 -17 4 -17
5 0 6 10 1 17 9 17 20 0 11 -8 22 -17 24 -17 4 -17 5 0 6 10 1 17 9 17 21 0
16 -7 20 -35 20 l-35 0 0 -70z m23 35 c-3 -9 -8 -14 -10 -11 -3 3 -2 9 2 15 9
16 15 13 8 -4z m1 -71 c3 -8 2 -12 -4 -9 -6 3 -10 10 -10 16 0 14 7 11 14 -7z"/>
</g>
</svg>
